<?xml version="1.0" encoding="UTF-8"?>
<svg id="Capa_2" data-name="Capa 2" xmlns="http://www.w3.org/2000/svg" viewBox="0 0 438.49 510.51">
  <defs>
    <style>
      .cls-1 {
        fill: #d5e8ff;
      }

      .cls-1, .cls-2, .cls-3, .cls-4 {
        stroke-width: 0px;
      }

      .cls-2 {
        fill: #194f91;
      }

      .cls-3 {
        fill: #234167;
      }

      .cls-4 {
        fill: #abd1ff;
      }
    </style>
  </defs>
  <g id="Capa_1-2" data-name="Capa 1">
    <path class="cls-2" d="m121.2,120.54c41.35,0,74.86,33.3,74.88,74.44h-1.94c-40.46-1.02-72.94-33.97-72.94-74.44Z"/>
    <path class="cls-1" d="m121.2,0c108.3,0,196.05,87.29,196.08,194.99h-74.88c0-5.16-.33-10.21-.96-15.19-6.88-54.4-50.21-97.51-104.92-104.38-5.01-.62-10.13-.95-15.32-.95V0Z"/>
    <path class="cls-4" d="m121.2,74.46c5.19,0,10.31.33,15.32.95,54.71,6.86,98.04,49.98,104.92,104.38.62,4.98.96,10.03.96,15.19h-46.31c-.02-41.14-33.53-74.44-74.88-74.44v-46.08Z"/>
    <path class="cls-4" d="m121.2,120.54c0,40.48-32.49,73.42-72.94,74.44h-1.94c.02-41.14,33.53-74.44,74.88-74.44Z"/>
    <path class="cls-1" d="m121.2,74.46v46.08c-41.35,0-74.86,33.3-74.88,74.44H0c0-5.16.33-10.21.96-15.19,6.88-54.4,50.21-97.51,104.92-104.38,5.01-.62,10.13-.95,15.32-.95Z"/>
    <path class="cls-1" d="m46.31,195.01c41.35,0,74.88,33.32,74.88,74.44-41.35,0-74.88-33.32-74.88-74.44Z"/>
    <path class="cls-3" d="m196.08,195.01c0,41.12-33.53,74.44-74.88,74.44,0-41.12,33.53-74.44,74.88-74.44Z"/>
    <path class="cls-4" d="m242.39,195.01h74.88c0,107.68-87.77,194.99-196.08,194.99v-74.46c5.19,0,10.31-.33,15.32-.95,54.69-6.86,98.04-49.98,104.92-104.36.62-4.98.96-10.05.96-15.21Z"/>
    <path class="cls-2" d="m196.08,195.01h46.31c0,5.16-.33,10.23-.96,15.21-6.88,54.38-50.23,97.49-104.92,104.36-5.01.62-10.13.95-15.32.95v-46.08c41.35,0,74.88-33.32,74.88-74.44Z"/>
    <path class="cls-1" d="m317.27,195.01h121.22c0,174.24-142.06,315.51-317.29,315.51v-120.52c108.3,0,196.08-87.31,196.08-194.99Z"/>
  </g>
</svg>